<svg width="51" height="52" viewBox="0 0 51 52" fill="none" xmlns="http://www.w3.org/2000/svg">
<g clip-path="url(#clip0_1742_4626)">
<path d="M50.7884 25.5723C50.7884 38.3004 41.5016 48.85 29.362 50.7625V32.9434H35.2791L36.405 25.5723H29.362V20.789C29.362 18.7719 30.3461 16.8066 33.5005 16.8066H36.7025V10.5312C36.7025 10.5312 33.7961 10.0332 31.0176 10.0332C25.2176 10.0332 21.4263 13.5634 21.4263 19.9543V25.5723H14.9786V32.9434H21.4263V50.7625C9.28674 48.85 0 38.3004 0 25.5723C0 11.4895 11.3699 0.0722656 25.3942 0.0722656C39.4185 0.0722656 50.7884 11.4895 50.7884 25.5723Z" fill="#1877F2"/>
<path d="M35.279 32.9434L36.4049 25.5723H29.3619V20.7889C29.3619 18.7723 30.3458 16.8066 33.5003 16.8066H36.7025V10.5312C36.7025 10.5312 33.7964 10.0332 31.018 10.0332C25.2174 10.0332 21.4263 13.5634 21.4263 19.9543V25.5723H14.9785V32.9434H21.4263V50.7624C22.7192 50.9661 24.0442 51.0723 25.3941 51.0723C26.744 51.0723 28.069 50.9661 29.3619 50.7624V32.9434H35.279Z" fill="white"/>
</g>
<defs>
<clipPath id="clip0_1742_4626">
<rect width="50.7884" height="51" fill="white" transform="translate(0 0.0722656)"/>
</clipPath>
</defs>
</svg>
