<svg width="52" height="52" viewBox="0 0 52 52" fill="none" xmlns="http://www.w3.org/2000/svg">
<g clip-path="url(#clip0_1742_4635)">
<path d="M50.9179 15.0588C50.7943 12.3445 50.365 10.4908 49.7373 8.86902C49.0999 7.16749 48.1002 5.62627 46.8083 4.35236C45.54 3.0551 44.0048 2.05083 42.3104 1.41038C40.6949 0.780426 38.8493 0.349693 36.1463 0.226349C33.4381 0.101837 32.5729 0.0722656 25.6764 0.0722656C18.78 0.0722656 17.9147 0.101837 15.2066 0.225571C12.5035 0.349693 10.6579 0.780815 9.04248 1.41116C7.34801 2.05122 5.81318 3.0551 4.54456 4.35236C3.25268 5.62588 2.25259 7.1671 1.61479 8.86863C0.987449 10.4908 0.558503 12.3445 0.43567 15.0584C0.311675 17.7782 0.282227 18.6467 0.282227 25.5719C0.282227 32.4975 0.311675 33.3663 0.43567 36.0857C0.558891 38.7997 0.988224 40.6534 1.61595 42.2755C2.25336 43.9767 3.25307 45.5183 4.54494 46.7918C5.81318 48.089 7.3484 49.0929 9.04287 49.733C10.6579 50.3637 12.5039 50.7944 15.207 50.9186C17.9155 51.0427 18.7804 51.0719 25.6768 51.0719C32.5733 51.0719 33.4385 51.0427 36.1466 50.9186C38.8497 50.7944 40.6953 50.3637 42.3107 49.733C45.7218 48.4085 48.4183 45.7008 49.7373 42.2755C50.3654 40.6534 50.7943 38.7997 50.9179 36.0857C51.0412 33.3659 51.0706 32.4975 51.0706 25.5723C51.0706 18.6467 51.0412 17.7782 50.9179 15.0588ZM46.3468 35.8768C46.234 38.3631 45.8202 39.7133 45.4726 40.6117C44.6182 42.8358 42.8679 44.5934 40.6531 45.4513C39.7584 45.8004 38.4138 46.2159 35.9378 46.3291C33.2607 46.4521 32.4574 46.4778 25.6764 46.4778C18.8951 46.4778 18.0922 46.4521 15.4147 46.3291C12.939 46.2159 11.5945 45.8004 10.6994 45.4513C9.59658 45.0424 8.59881 44.3907 7.77967 43.5436C6.93611 42.721 6.28708 41.7195 5.87983 40.6117C5.53226 39.7133 5.11842 38.3631 5.00566 35.8768C4.88361 33.1881 4.85765 32.3815 4.85765 25.5727C4.85765 18.7634 4.88361 17.9572 5.00566 15.2681C5.11881 12.7818 5.53226 11.4316 5.87983 10.5332C6.28708 9.42543 6.9365 8.4235 7.77967 7.60094C8.59881 6.75388 9.59658 6.10213 10.6998 5.69358C11.5945 5.34417 12.939 4.929 15.4151 4.81538C18.0926 4.69282 18.8958 4.66675 25.6764 4.66675H25.676C32.4566 4.66675 33.2599 4.69282 35.9378 4.81577C38.4138 4.929 39.758 5.34456 40.6531 5.69358C41.7559 6.10252 42.7536 6.75426 43.5728 7.60094C44.4163 8.4235 45.0654 9.42543 45.4722 10.5332C45.8202 11.4316 46.234 12.7818 46.3468 15.2681C46.4688 17.9568 46.4948 18.7634 46.4948 25.5723C46.4948 32.3815 46.4692 33.1877 46.3468 35.8768Z" fill="url(#paint0_linear_1742_4635)"/>
<path d="M25.676 12.4775C18.4742 12.4775 12.636 18.3405 12.636 25.5723C12.636 32.8041 18.4742 38.6666 25.676 38.6666C32.8782 38.6666 38.7164 32.8041 38.7164 25.5723C38.7164 18.3405 32.8782 12.4775 25.676 12.4775ZM25.676 34.0722C21.0014 34.0718 17.2114 30.2664 17.2118 25.5719C17.2118 20.8778 21.0014 17.072 25.6764 17.072C30.3514 17.0724 34.141 20.8778 34.141 25.5719C34.141 30.2664 30.351 34.0722 25.676 34.0722Z" fill="url(#paint1_linear_1742_4635)"/>
<path d="M42.2791 11.9604C42.2791 13.6503 40.9147 15.0203 39.2319 15.0203C37.5487 15.0203 36.1843 13.6503 36.1843 11.9604C36.1843 10.2702 37.5487 8.90015 39.2319 8.90015C40.9147 8.90015 42.2791 10.2702 42.2791 11.9604Z" fill="url(#paint2_linear_1742_4635)"/>
</g>
<defs>
<linearGradient id="paint0_linear_1742_4635" x1="4.5443" y1="46.792" x2="46.9843" y2="4.52815" gradientUnits="userSpaceOnUse">
<stop stop-color="#FFD600"/>
<stop offset="0.5" stop-color="#FF0100"/>
<stop offset="1" stop-color="#D800B9"/>
</linearGradient>
<linearGradient id="paint1_linear_1742_4635" x1="16.4554" y1="34.8314" x2="34.9737" y2="16.3899" gradientUnits="userSpaceOnUse">
<stop stop-color="#FF6400"/>
<stop offset="0.5" stop-color="#FF0100"/>
<stop offset="1" stop-color="#FD0056"/>
</linearGradient>
<linearGradient id="paint2_linear_1742_4635" x1="37.077" y1="14.1239" x2="41.4044" y2="9.81453" gradientUnits="userSpaceOnUse">
<stop stop-color="#F30072"/>
<stop offset="1" stop-color="#E50097"/>
</linearGradient>
<clipPath id="clip0_1742_4635">
<rect width="50.7884" height="51" fill="white" transform="translate(0.282227 0.0722656)"/>
</clipPath>
</defs>
</svg>
