<svg width="52" height="52" viewBox="0 0 52 52" fill="none" xmlns="http://www.w3.org/2000/svg">
<g clip-path="url(#clip0_1742_4640)">
<path d="M2.02671 51.0723C1.74153 51.0723 1.46409 50.959 1.25833 50.7501C0.987093 50.4746 0.882472 50.0746 0.984381 49.7007L4.28614 37.5935C2.23053 33.8609 1.14674 29.6384 1.14829 25.352C1.1541 11.4126 12.4508 0.0722656 26.3313 0.0722656C33.0639 0.0749893 39.3899 2.70841 44.1448 7.48655C48.8988 12.2651 51.5159 18.6171 51.5139 25.3723C51.5077 39.3121 40.211 50.6532 26.3313 50.6532C26.3313 50.6532 26.3208 50.6532 26.3205 50.6532C22.2662 50.6516 18.2468 49.6594 14.668 47.7801L2.30067 51.0369C2.20999 51.0606 2.11777 51.0723 2.02671 51.0723V51.0723Z" fill="#E5E5E5"/>
<path d="M2.02661 49.9871L5.44578 37.4491C3.3367 33.7795 2.22733 29.617 2.22888 25.3524C2.2343 12.0114 13.0459 1.15747 26.3312 1.15747C32.7782 1.16019 38.8295 3.68 43.3801 8.25347C47.9304 12.8269 50.4355 18.9062 50.4331 25.3719C50.4273 38.7125 39.6142 49.568 26.3312 49.568C26.3304 49.568 26.3316 49.568 26.3312 49.568H26.3207C22.287 49.5665 18.3238 48.5505 14.8035 46.6225L2.02661 49.9871ZM15.3952 42.2424L16.1272 42.6779C19.2023 44.5105 22.728 45.4798 26.3234 45.4817H26.3312C37.3722 45.4817 46.3587 36.4593 46.3634 25.3703C46.3653 19.9965 44.2837 14.9433 40.5015 11.1421C36.7189 7.34103 31.6897 5.24651 26.3386 5.24418C15.2887 5.24418 6.3025 14.2654 6.29824 25.354C6.29669 29.1539 7.3553 32.8543 9.36092 36.0566L9.83753 36.8176L7.81331 44.2385L15.3952 42.2424Z" fill="white"/>
<path d="M2.86475 49.1423L6.16573 37.0378C4.12911 33.4954 3.05849 29.4764 3.05965 25.3602C3.06469 12.481 13.5024 2.00293 26.3269 2.00293C32.5515 2.00565 38.3936 4.4383 42.7857 8.85341C47.179 13.2685 49.5969 19.1373 49.5946 25.3784C49.5892 38.258 39.1511 48.7372 26.3281 48.7372C26.3269 48.7372 26.3285 48.7372 26.3281 48.7372H26.3176C22.4238 48.7357 18.5974 47.7544 15.1992 45.8945L2.86475 49.1423Z" fill="#64B161"/>
<path d="M2.02661 49.9871L5.44578 37.4491C3.3367 33.7795 2.22733 29.617 2.22888 25.3524C2.2343 12.0114 13.0459 1.15747 26.3312 1.15747C32.7782 1.16019 38.8295 3.68 43.3801 8.25347C47.9304 12.8269 50.4355 18.9062 50.4331 25.3719C50.4273 38.7125 39.6142 49.568 26.3312 49.568C26.3304 49.568 26.3316 49.568 26.3312 49.568H26.3207C22.287 49.5665 18.3238 48.5505 14.8035 46.6225L2.02661 49.9871ZM15.3952 42.2424L16.1272 42.6779C19.2023 44.5105 22.728 45.4798 26.3234 45.4817H26.3312C37.3722 45.4817 46.3587 36.4593 46.3634 25.3703C46.3653 19.9965 44.2837 14.9433 40.5015 11.1421C36.7189 7.34103 31.6897 5.24651 26.3386 5.24418C15.2887 5.24418 6.3025 14.2654 6.29824 25.354C6.29669 29.1539 7.3553 32.8543 9.36092 36.0566L9.83753 36.8176L7.81331 44.2385L15.3952 42.2424Z" fill="white"/>
<path fill-rule="evenodd" clip-rule="evenodd" d="M20.3074 15.2374C19.8563 14.2304 19.3813 14.2101 18.952 14.1926C18.6009 14.1775 18.1991 14.1782 17.798 14.1782C17.3966 14.1782 16.7441 14.33 16.1923 14.935C15.6401 15.5401 14.084 17.0031 14.084 19.9785C14.084 22.9544 16.2423 25.8294 16.5434 26.2333C16.8444 26.6368 20.7096 32.9379 26.8307 35.362C31.918 37.3767 32.9529 36.9759 34.0573 36.8752C35.1616 36.7744 37.6202 35.4121 38.122 34.0001C38.6242 32.5881 38.6242 31.378 38.4734 31.1247C38.3227 30.8729 37.9213 30.7216 37.3191 30.4192C36.717 30.1169 33.7562 28.6535 33.204 28.4519C32.6519 28.25 32.2504 28.1496 31.849 28.755C31.4472 29.3597 30.294 30.7216 29.9426 31.1247C29.5911 31.5289 29.2397 31.5795 28.6375 31.2768C28.0354 30.9737 26.0956 30.3356 23.7947 28.2753C22.0046 26.6726 20.7956 24.6929 20.4442 24.0874C20.0931 23.4828 20.4383 23.1839 20.7088 22.8536C21.1959 22.2587 22.0131 21.189 22.2138 20.7859C22.4145 20.382 22.3142 20.0291 22.1638 19.7264C22.0131 19.4241 20.8425 16.4334 20.3074 15.2374V15.2374Z" fill="white"/>
</g>
<defs>
<clipPath id="clip0_1742_4640">
<rect width="50.7884" height="51" fill="white" transform="translate(0.946045 0.0722656)"/>
</clipPath>
</defs>
</svg>
