<svg width="63" height="63" viewBox="0 0 63 63" fill="none" xmlns="http://www.w3.org/2000/svg">
<g clip-path="url(#clip0_1742_4631)">
<path d="M61.1344 7.12851C60.4227 4.4725 58.3373 2.37891 55.6928 1.66371C50.8611 0.335938 31.5346 0.335938 31.5346 0.335938C31.5346 0.335938 12.2085 0.335938 7.37686 1.61309C4.78322 2.32783 2.64697 4.47297 1.9352 7.12851C0.663818 11.9798 0.663818 22.041 0.663818 22.041C0.663818 22.041 0.663818 32.1527 1.9352 36.9534C2.64744 39.6089 4.73234 41.703 7.37733 42.4182C12.2594 43.746 31.5351 43.746 31.5351 43.746C31.5351 43.746 50.8611 43.746 55.6928 42.4688C58.3378 41.7541 60.4227 39.66 61.1349 37.0045C62.4063 32.1527 62.4063 22.092 62.4063 22.092C62.4063 22.092 62.4572 11.9798 61.1344 7.12851Z" fill="#FF0000"/>
<path d="M25.3811 31.3359L41.4523 22.041L25.3811 12.7461V31.3359Z" fill="white"/>
</g>
<defs>
<clipPath id="clip0_1742_4631">
<rect width="61.7427" height="62" fill="white" transform="translate(0.663818 0.335938)"/>
</clipPath>
</defs>
</svg>
